<svg xmlns="http://www.w3.org/2000/svg" width="1024" height="1024" viewBox="0 0 1024 1024" role="img" aria-labelledby="title desc">
<title id="title">Lingua · 白底音频图标</title>
<desc id="desc">五根圆润的薄荷绿色音频条，置于纯白背景中央。音频主体宽约61%，高约46%。</desc>
<defs>
  <linearGradient id="green" x1="330" y1="280" x2="714" y2="660" gradientUnits="userSpaceOnUse"><stop stop-color="#A3D492"/><stop offset=".48" stop-color="#82C289"/><stop offset="1" stop-color="#63AD7E"/></linearGradient>
  <filter id="groove" x="-40%" y="-30%" width="180%" height="170%" color-interpolation-filters="sRGB"><feGaussianBlur in="SourceAlpha" stdDeviation="3" result="blur"/><feOffset in="blur" dy="-3" result="offset"/><feComposite in="offset" in2="SourceAlpha" operator="out" result="edge"/><feFlood flood-color="#789B69" flood-opacity=".20"/><feComposite in2="edge" operator="in" result="shadow"/><feMerge><feMergeNode in="shadow"/><feMergeNode in="SourceGraphic"/></feMerge></filter>
</defs>
<rect width="1024" height="1024" fill="#FFFFFF"/>
<g transform="translate(512 512) scale(1.8) translate(-512 -481)" filter="url(#groove)">
<rect x="339" y="431" width="42" height="106" rx="21" fill="#FFFFFF"/>
<rect x="415" y="394" width="42" height="180" rx="21" fill="#FFFFFF"/>
<rect x="491" y="352" width="42" height="264" rx="21" fill="#FFFFFF"/>
<rect x="567" y="394" width="42" height="180" rx="21" fill="#FFFFFF"/>
<rect x="643" y="431" width="42" height="106" rx="21" fill="#FFFFFF"/>
<rect x="339" y="428" width="42" height="106" rx="21" fill="url(#green)"/>
<rect x="415" y="391" width="42" height="180" rx="21" fill="url(#green)"/>
<rect x="491" y="349" width="42" height="264" rx="21" fill="url(#green)"/>
<rect x="567" y="391" width="42" height="180" rx="21" fill="url(#green)"/>
<rect x="643" y="428" width="42" height="106" rx="21" fill="url(#green)"/>
</g>
</svg>